<svg
                            xmlns="http://www.w3.org/2000/svg"
                            width="22"
                            height="22"
                            viewBox="0 0 24 24"
                            fill="rgb(68, 71, 70)"
                        >
                            <path d="M 4 6.01 V 4 H 2 v 6 h 6 V 8 H 5.09 C 6.47 5.61 9.04 4 12 4 c 4.42 0 8 3.58 8 8 s -3.58 8 -8 8 s -8 -3.58 -8 -8 H 2 c 0 5.52 4.48 10 10.01 10 C 17.53 22 22 17.52 22 12 S 17.53 2 12.01 2 C 8.73 2 5.83 3.58 4 6.01 Z M 13 6 v 6 l 4.23 2.94 l -1.26 1.55 L 11 13 V 6 h 2 Z" />
                        </svg>