<svg
                        xmlns="http://www.w3.org/2000/svg"
                        width="20"
                        height="20"
                        viewBox="0 0 24 24"
                        fill="rgb(68, 71, 70)"
                    >
                        <path d="M 13.5 6 H 13 V 4 c 0 -2.21 -1.79 -4 -4 -4 S 5 1.79 5 4 v 2 h -0.5 C 3.67 6 3 6.67 3 7.5 v 8 c 0 0.83 0.67 1.5 1.5 1.5 h 9 c 0.83 0 1.5 -0.67 1.5 -1.5 v -8 c 0 -0.83 -0.67 -1.5 -1.5 -1.5 Z m -7 -2 c 0 -1.38 1.12 -2.5 2.5 -2.5 s 2.5 1.12 2.5 2.5 v 2 h -5 V 4 Z m 7 11.5 h -9 v -8 h 9 v 8 Z" />
                    </svg>